<?xml version="1.0" encoding="UTF-8" standalone="no"?>
<!-- Created with Inkscape (http://www.inkscape.org/) -->

<svg
   width="2304.0034"
   height="3104.0049"
   viewBox="0 0 609.60073 821.26792"
   version="1.1"
   id="svg1"
   sodipodi:docname="icon.svg"
   inkscape:version="1.3.2 (091e20e, 2023-11-25, custom)"
   xmlns:inkscape="http://www.inkscape.org/namespaces/inkscape"
   xmlns:sodipodi="http://sodipodi.sourceforge.net/DTD/sodipodi-0.dtd"
   xmlns="http://www.w3.org/2000/svg"
   xmlns:svg="http://www.w3.org/2000/svg">
  <sodipodi:namedview
     id="namedview1"
     pagecolor="#505050"
     bordercolor="#eeeeee"
     borderopacity="1"
     inkscape:showpageshadow="0"
     inkscape:pageopacity="0"
     inkscape:pagecheckerboard="0"
     inkscape:deskcolor="#d1d1d1"
     inkscape:document-units="px"
     showgrid="true"
     inkscape:zoom="0.1767767"
     inkscape:cx="2528.6139"
     inkscape:cy="3357.343"
     inkscape:window-width="3840"
     inkscape:window-height="2054"
     inkscape:window-x="3829"
     inkscape:window-y="-11"
     inkscape:window-maximized="1"
     inkscape:current-layer="layer1"
     showguides="true">
    <inkscape:grid
       visible="true"
       id="grid1"
       units="px"
       originx="-25.399176"
       originy="-33.866669"
       spacingx="8.4666666"
       spacingy="8.4666666"
       empcolor="#0099e5"
       empopacity="0.30196078"
       color="#0099e5"
       opacity="0.14901961"
       empspacing="4"
       dotted="false"
       gridanglex="30"
       gridanglez="30" />
  </sodipodi:namedview>
  <defs
     id="defs1" />
  <g
     inkscape:label="Layer 1"
     inkscape:groupmode="layer"
     id="layer1"
     style="display:inline"
     transform="translate(-25.399179,-33.866664)">
    <g
       id="g2">
      <path
         style="fill:#3a3a3a;fill-opacity:1;stroke-width:8.46677"
         d="m 118.5335,186.26913 8.46678,-16.93361 h 84.66758 l 8.46675,16.93361 h 8.46678 l 8.46675,8.46681 v 177.80287 l -16.93353,33.86723 v 8.4668 l -8.46675,8.46679 h -101.6011 l -8.46675,-8.46679 V 186.26913 Z"
         id="path40" />
      <path
         style="fill:#585858;fill-opacity:1;stroke-width:8.46677"
         d="m 237.06814,211.66954 h 16.93351 l 16.93353,16.93361 V 338.6716 l -16.93353,16.93359 -16.93351,3e-5 z"
         id="path41"
         sodipodi:nodetypes="ccccccc" />
      <path
         style="fill:#0e232e;fill-opacity:1;stroke-width:8.46677"
         d="m 25.399179,169.33553 8.466761,-8.4668 h 25.400277 l 8.466758,8.4668 h 16.93351 l 8.466758,16.9336 H 101.6 v 186.26968 l -8.466757,8.46682 H 33.86594 l -8.466761,-8.46682 z"
         id="path45" />
      <path
         style="fill:#2d2d2d;stroke-width:8.46677"
         d="m 59.266211,321.73799 8.466758,-8.4668 h 16.93351 l 33.867031,25.40041 v 16.93359 l -8.46675,8.46682 -50.800549,-33.86723 z"
         id="path42-7" />
      <path
         style="fill:#222222;fill-opacity:1;stroke-width:8.46677"
         d="m 101.6,203.20274 50.80055,16.93361 h 33.86703 8.46676 l 42.3338,16.9336 v 8.46681 l -42.3338,-16.93361 H 152.40055 L 101.6,211.66954 Z"
         id="path43" />
      <path
         style="fill:#222222;fill-opacity:1;stroke-width:8.46677"
         d="m 101.6,262.47037 v 8.4668 l 33.86704,16.93361 h 50.80054 l 33.86704,42.334 8.46676,8.46682 h 8.46676 v -16.93361 l -8.46676,-8.4668 h -8.46676 l -25.40027,-33.86721 h -50.80056 z"
         id="path44"
         sodipodi:nodetypes="ccccccccccccc" />
      <path
         style="fill:#2d2d2d;stroke-width:8.46677"
         d="m 59.266211,211.66954 8.466758,-8.4668 h 16.93351 l 33.867031,25.40041 v 16.93361 l -8.46675,8.4668 -50.800549,-33.86721 z"
         id="path42" />
      <path
         style="fill:#ff6600;fill-opacity:1;stroke-width:8.46677"
         d="m 270.93518,237.06995 -8.46675,8.46681 v 33.86721 l 8.46675,8.46681 z"
         id="path46" />
    </g>
    <g
       id="g1">
      <path
         style="fill:#ff6600;stroke-width:8.46677"
         d="m 101.6,33.866664 h 101.60111 l 33.86703,33.867214 v 84.668032 l -16.93352,16.93361 H 110.06676 L 101.6,160.86872 Z"
         id="path26" />
      <path
         style="fill:#0e232e;stroke-width:8.46677"
         d="m 101.6,50.800272 h 16.93352 l 8.46676,8.466806 V 118.5347 l 8.46676,8.4668 25.40027,8.4668 25.40028,16.93361 16.93352,8.46681 v 8.4668 H 110.06676 L 101.6,160.86872 Z"
         id="path29" />
      <path
         style="fill:#2d2d2d;stroke-width:8.46677"
         d="m 186.26758,169.33552 -16.93351,-8.4668 h -50.80055 l -8.46676,-8.46681 V 118.5347 H 101.6 v 42.33402 l 8.46676,8.4668 z"
         id="path28" />
    </g>
    <path
       style="fill:#0e232e;stroke-width:8.46677"
       d="M 118.53351,186.26913 H 228.60138"
       id="path32" />
    <path
       style="fill:#ff6600;stroke-width:8.46677"
       d="m 220.13462,186.26913 h 8.46676"
       id="path35" />
    <path
       style="fill:#ff6600;stroke-width:8.46677"
       d="M 237.06814,194.73594 V 372.53881"
       id="path36" />
    <path
       style="fill:#ff6600;stroke-width:8.46677"
       d="m 220.13462,406.40604 v 8.4668"
       id="path37" />
    <path
       style="fill:#ff6600;stroke-width:8.46677"
       d="M 211.66786,423.33963 H 110.06676"
       id="path38" />
    <path
       style="fill:#ff6600;stroke-width:8.46677"
       d="M 101.6,414.87284 V 186.26913"
       id="path39" />
    <path
       style="fill:#3a3a3a;fill-opacity:1;stroke-width:8.46677"
       d="m 118.53316,448.73356 16.9335,-16.93359 42.33323,1e-5 16.93353,16.93359 -9e-5,135.46639 -8.46667,8.46666 H 127 l -8.46667,-8.46666 z"
       id="path48"
       sodipodi:nodetypes="ccccccccc" />
    <path
       style="display:inline;fill:#3a3a3a;fill-opacity:1;stroke-width:8.46677"
       d="m 118.53326,618.06687 16.9335,-16.93359 42.33323,10e-6 16.93353,16.93359 -1.9e-4,135.4664 -8.46666,8.46667 H 127 l -8.46667,-8.46667 z"
       id="path48-9"
       sodipodi:nodetypes="ccccccccc" />
    <path
       style="fill:#423832;fill-opacity:1;stroke-width:8.46677"
       d="m 126.99957,854.86989 -8.46678,-8.20221 v -59.26762 l 8.46678,-8.46679 h 42.33376 l 67.73409,33.8672 8.46671,8.4668 v 25.40041 l -8.46671,8.46682 H 126.99957 l -8.46678,-8.46682 v 0"
       id="path50" />
    <path
       style="fill:#3a3a3a;fill-opacity:1;stroke-width:0.264583"
       d="m 304.79999,237.06665 8.46667,-8.46667 h 135.46666 l 8.46667,8.46667 v 42.33333 l -8.46666,8.46666 H 313.26666 l -8.46667,-8.46667 z"
       id="path1"
       sodipodi:nodetypes="ccccccccc" />
    <path
       style="display:inline;fill:#3a3a3a;fill-opacity:1;stroke-width:0.264583"
       d="m 491.06664,237.06665 8.46667,-8.46667 h 127 l 8.46666,8.46667 v 42.33333 l -8.46666,8.46666 h -127 l -8.46667,-8.46667 z"
       id="path1-5"
       sodipodi:nodetypes="ccccccccc" />
    <path
       style="fill:#a18d7f;fill-opacity:1;stroke-width:0.264583"
       d="M 160.86666,431.79997 177.8,448.7333 v 42.33333 l -16.93334,16.93334 v 67.73333 l -16.93333,16.93331 H 127 l -8.46667,-8.46667 V 474.1333 l 16.93333,-16.93333 8.46667,-8.46667 v -16.93333 z"
       id="path2" />
    <path
       style="fill:#0e232e;fill-opacity:1;stroke-width:0.264583"
       d="M 118.53333,795.8666 127,804.33327 v 16.93333 l 50.79999,8.46667 25.4,16.93333 h 16.93334 l 16.93333,-16.93333 h 8.46667 v 16.93333 l -8.46667,8.46667 H 127 l -8.46667,-8.46667 z"
       id="path3"
       sodipodi:nodetypes="ccccccccccccc" />
    <path
       style="fill:#ff6500;fill-opacity:1;stroke-width:0.264583"
       d="m 118.53333,728.13327 h 16.93333 l 8.46667,16.93333 h 25.4 L 177.8,728.13327 h 16.93333 v 25.4 l -8.46667,8.46667 H 127 l -8.46667,-8.46667 z"
       id="path4" />
    <path
       style="fill:#ff6500;fill-opacity:1;stroke-width:0.264583"
       d="M 118.53333,795.8666 H 127 l 8.46666,-8.46666 h 25.4 l 8.46667,8.46666 H 177.8 l 8.46666,-8.46666 -16.93333,-8.46667 H 127 l -8.46667,8.46667 z"
       id="path5" />
    <path
       style="fill:#ff6500;fill-opacity:1;stroke-width:0.264583"
       d="m 118.53333,634.99994 -7e-5,-16.93307 16.9334,-16.9336 H 177.8 l 16.93333,16.93334 v 16.93333 H 177.8 l -8.46667,-16.93333 h -25.4 l -8.46667,16.93333 z"
       id="path6" />
    <path
       style="fill:#ff6500;fill-opacity:1;stroke-width:0.264583"
       d="m 118.53333,558.79997 v 25.4 L 127,592.66661 h 59.26666 l 8.46667,-8.46667 V 558.79997 H 177.8 l -8.46667,16.93333 h -25.4 l -8.46667,-16.93333 z"
       id="path7" />
    <path
       style="fill:#a18d7f;fill-opacity:1;stroke-width:0.264583"
       d="m 127,423.3333 v -8.46667 l 8.46666,-8.46666 H 177.8 l 8.46666,8.46666 v 8.46667 z"
       id="path8" />
    <path
       style="fill:#a18d7f;stroke-width:0.264583"
       d="m 347.13333,228.59998 v 25.4 l 16.93333,16.93332 h 33.86667 l 16.93333,16.93334 h -101.6 L 304.8,279.39997 v -42.33332 l 8.46666,-8.46667 z"
       id="path9" />
    <path
       style="fill:#ff6600;fill-opacity:1;stroke-width:0.264583"
       d="m 448.73332,287.86664 -8.46667,-8.46667 v -25.39999 l -8.46666,-8.46667 h -16.93334 l -16.93333,-16.93333 h 50.8 l 8.46667,8.46667 v 42.33332 z"
       id="path10" />
    <path
       style="fill:#726154;fill-opacity:1;stroke-width:0.264583"
       d="m 423.33332,287.86664 -59.26666,-59.26666 h 16.93333 l 59.26667,59.26666 z"
       id="path11" />
    <path
       style="display:inline;fill:#726154;fill-opacity:1;stroke-width:0.264583"
       d="m 575.73331,287.86664 -59.26666,-59.26666 h 16.93333 l 59.26667,59.26666 z"
       id="path11-4" />
    <path
       style="fill:#a18d7f;fill-opacity:1;stroke-width:0.264583"
       d="m 533.39998,228.59998 v 59.26666 h 8.46667 8.46667 v -59.26666 z"
       id="path17"
       sodipodi:nodetypes="cccccc" />
    <path
       style="fill:#ff6600;fill-opacity:1;stroke-width:0.264583"
       d="m 626.53331,228.59998 -8.46667,8.46667 v 42.33332 l 8.46667,8.46667 8.46666,-8.46667 v -42.33332 z"
       id="path14" />
    <path
       style="fill:#0e232e;fill-opacity:1;stroke-width:0.264583"
       d="m 313.26666,270.9333 8.46667,8.46667 H 330.2 v -8.46667 l -8.46667,-8.46666 h -8.46667 z"
       id="path15" />
    <path
       style="fill:#ff6600;fill-opacity:1;stroke-width:0.264583"
       d="m 533.39999,287.86664 -8.46666,-8.46667 h -8.46667 l -8.46667,-8.46667 v -42.33332 h -8.46666 l -8.46667,8.46667 v 42.33332 l 8.46667,8.46667 z"
       id="path16" />
    <path
       style="fill:#0e232e;fill-opacity:1;stroke-width:0.264583"
       d="m 584.19999,228.59998 h 25.39998 v 8.46667 l -8.46664,8.46666 -10e-6,16.93334 h -16.93334 z"
       id="path18"
       sodipodi:nodetypes="ccccccc" />
  </g>
</svg>
